<svg xmlns="http://www.w3.org/2000/svg" fill="none" viewBox="0 0 40 32" height="32" width="40">
<path fill="#878787" d="M37.5762 18.9042C35.7628 18.7178 34.4409 17.2772 34.4409 15.4807C34.4409 13.6842 35.7459 12.2267 37.5593 12.0233C38.8473 11.8878 39.1693 11.5319 39.1863 10.2777C39.2032 8.46428 39.2032 6.66779 39.1863 4.87131C39.1524 2.1088 37.4745 0.464844 34.6951 0.464844C31.1191 0.464844 27.5431 0.464844 23.967 0.464844H19.6792H15.188C13.7135 0.464844 12.2221 0.464844 10.7307 0.464844C8.61219 0.464844 6.4937 0.464844 4.39215 0.464844C1.73132 0.464844 0.0534657 2.12574 0.0195698 4.78657C-0.0143261 6.68474 0.00262186 8.59986 0.0195698 10.3963C0.0365178 11.5149 0.409379 11.9047 1.56184 12.0233C3.46001 12.2098 4.765 13.6504 4.765 15.4977C4.74805 17.3111 3.46001 18.7178 1.61268 18.9042C0.392429 19.0398 0.036524 19.4127 0.036524 20.599C0.019576 22.4294 0.019576 24.5987 0.036524 26.7681C0.0704199 29.4967 1.78216 31.1915 4.52773 31.1915C14.8321 31.1915 25.0009 31.1915 34.7459 31.1915C37.4746 31.1915 39.1863 29.4967 39.2202 26.7511C39.2371 24.7004 39.2371 22.6497 39.2202 20.6668C39.1694 19.4127 38.8304 19.0398 37.5762 18.9042ZM36.5763 26.9714C36.5594 28.09 35.9153 28.5984 34.5934 28.5984C28.7633 28.5984 22.9502 28.5984 17.137 28.5984H11.3239H9.324H7.32414C6.37506 28.5984 5.42598 28.5984 4.47689 28.5984C3.138 28.5984 2.57872 28.0392 2.57872 26.6833C2.57872 25.497 2.57872 24.2767 2.57872 23.0904C2.57872 22.565 2.57872 22.0565 2.57872 21.5312V21.4464L2.66346 21.4125C5.74798 20.3448 7.30719 18.3449 7.30719 15.4638C7.30719 12.5826 5.74798 10.5828 2.66346 9.51505L2.57872 9.48116V9.39642C2.57872 8.92187 2.57872 8.44733 2.57872 7.98974C2.57872 6.92201 2.56177 5.80345 2.59566 4.71878C2.61261 3.56632 3.22274 3.05788 4.54468 3.05788C8.91725 3.05788 13.3068 3.05788 17.6793 3.05788H25.8822C28.7803 3.05788 31.6784 3.05788 34.5765 3.05788C36.1187 3.05788 36.6102 3.54937 36.6272 5.10858C36.6272 6.09156 36.6272 7.09149 36.6272 8.07448V9.48116L36.5424 9.51505C33.424 10.5997 31.8648 12.6335 31.8987 15.5655C31.9326 18.4127 33.4918 20.3787 36.5424 21.4125L36.6272 21.4464V21.5312C36.6272 22.0735 36.6272 22.6158 36.6272 23.1582C36.6102 24.4123 36.6102 25.7003 36.5763 26.9714Z"></path>
<path fill="#8F31D0" d="M27.8989 14.0052C27.6616 13.2594 27.0684 12.7171 26.3397 12.5307C24.1534 12.0053 22.662 10.9376 21.5095 9.0394C21.1028 8.37843 20.4079 7.97168 19.6113 7.97168H19.5944C18.8317 7.97168 18.1538 8.34453 17.764 8.97161C16.5438 10.9376 15.0184 12.0392 12.7983 12.5646C12.1712 12.7171 11.6966 13.1239 11.4424 13.734C11.1374 14.4627 11.2221 15.361 11.6458 16.0559C11.917 16.4796 12.2051 16.8694 12.4932 17.2083C13.4762 18.293 13.7982 19.259 13.5101 20.242C13.5101 20.4284 13.5101 20.6149 13.5101 20.7674C13.5101 21.0894 13.5101 21.3775 13.5101 21.6656C13.527 22.5808 13.9677 23.3774 14.6625 23.835C15.2557 24.2248 15.9506 24.2756 16.6285 24.0044C18.6622 23.157 20.5096 23.157 22.5772 24.0044C23.289 24.2926 24.0856 24.1909 24.7127 23.7333C25.3397 23.2757 25.6787 22.53 25.6109 21.7334C25.4245 19.581 26.0177 17.8015 27.4413 16.1406C27.9836 15.5644 28.1531 14.7509 27.8989 14.0052ZM25.6618 14.9373C23.5263 16.8524 22.8145 19.0387 23.5094 21.6656L23.5602 21.8521L23.3738 21.8012C22.9162 21.6656 22.4925 21.5131 22.0857 21.3606C21.2214 21.0555 20.4079 20.7504 19.6283 20.7504C18.8487 20.7504 18.086 21.0386 17.2047 21.3606C16.781 21.5131 16.3573 21.6656 15.8997 21.8182L15.7133 21.869L15.7641 21.6826C16.4082 18.9201 15.6964 16.6829 13.6118 14.8695L13.4253 14.717L13.6626 14.6831C16.6454 14.2424 18.4758 12.8527 19.391 10.3274L19.4588 10.141L19.5774 10.3105C19.8656 10.7003 20.1198 11.0901 20.374 11.463C20.8994 12.2595 21.357 12.9544 22.001 13.412C22.645 13.8865 23.4924 14.1238 24.3737 14.378C24.7974 14.4966 25.2211 14.6153 25.6618 14.7678L25.8312 14.8356L25.6618 14.9373Z"></path>
</svg>
