<svg width="37" height="36" viewBox="0 0 37 36" fill="none" xmlns="http://www.w3.org/2000/svg">
<path d="M30.7782 27.624C31.1341 30.9119 29.5918 32.6576 26.4395 32.6576C23.8126 32.6576 21.1856 32.6576 18.5587 32.6576C17.5927 32.6576 17.0673 33.0982 17.0673 33.8948C17.0673 34.6744 17.5927 35.1659 18.5417 35.1659C21.4229 35.1828 24.3041 35.2167 27.1852 35.1489C30.1003 35.0811 32.456 33.2169 33.1339 30.4882C33.3373 29.6747 33.2695 28.8104 33.4051 27.9799C33.422 27.8613 33.4559 27.7427 33.5237 27.624H30.7782Z" fill="#8F31D0"></path>
<path d="M35.8794 18.9145C35.8625 17.6604 35.4388 16.4909 34.3202 15.8808C33.422 15.3893 33.3542 14.7792 33.3542 13.9149C33.3542 8.01697 29.7273 2.86479 24.2701 0.864933C21.677 -0.0841528 18.9992 -0.067207 16.3215 0.0683767C12.8302 0.237856 9.79651 1.57675 7.32211 4.06809C4.4918 6.88146 3.18682 10.3388 3.23766 14.3216C3.23766 14.9487 3.16986 15.3724 2.50889 15.7283C1.28864 16.3723 0.763251 17.5417 0.729355 18.8976C0.695459 20.5585 0.678511 22.2363 0.729355 23.8972C0.797147 26.1174 2.37331 27.6257 4.5935 27.6427C6.03407 27.6596 7.47465 27.6427 8.91522 27.6427C10.4236 27.6427 10.7795 27.3037 10.7795 25.8123C10.7795 22.8464 10.7795 19.8805 10.7795 16.9146C10.7795 15.4741 10.3897 15.0843 8.98302 15.0843C7.9153 15.0843 6.86451 15.0843 5.81374 15.0843C5.25446 9.22027 8.99997 4.0003 14.6436 2.86479C16.3723 2.52583 18.1858 2.47499 19.9483 2.57668C24.7616 2.86479 28.1681 5.28835 30.0493 9.74566C30.7611 11.4235 30.9645 13.203 30.7781 15.0843C29.5917 15.0843 28.4732 15.0673 27.3376 15.0843C26.2869 15.1012 25.8123 15.5419 25.8123 16.5757C25.7954 19.7619 25.7954 22.9651 25.8123 26.1513C25.8123 27.2021 26.2699 27.6258 27.3376 27.6258C28.3884 27.6427 29.4392 27.6258 30.5239 27.6258H33.5067C33.5914 27.4563 33.7101 27.3037 33.8457 27.219C35.1507 26.4394 35.8455 25.3208 35.8625 23.8125C35.9133 22.1855 35.9133 20.5415 35.8794 18.9145ZM8.22036 17.6095V25.1005C6.91537 25.1005 5.64428 25.1344 4.39013 25.0836C3.66137 25.0497 3.2885 24.5243 3.27155 23.8294C3.23765 22.1855 3.23765 20.5585 3.27155 18.9145C3.2885 18.0841 3.77999 17.6265 4.61044 17.6095C5.7968 17.5926 6.96621 17.6095 8.22036 17.6095ZM33.3542 23.8294C33.3372 24.5243 32.9644 25.0497 32.2356 25.0836C30.9815 25.1344 29.7104 25.1005 28.3884 25.1005V17.6095C29.6426 17.6095 30.8289 17.5926 32.0153 17.6095C32.8457 17.6265 33.3372 18.0841 33.3542 18.9315C33.3881 20.5585 33.3881 22.2024 33.3542 23.8294Z" fill="#878787"></path>
</svg>
