<svg xmlns="http://www.w3.org/2000/svg" fill="none" viewBox="0 0 34 34" height="34" width="34">
<path fill="#878787" d="M32.9566 14.7474C32.2109 10.1884 29.8043 6.25647 26.2113 3.69733C22.6014 1.12124 18.1102 0.121307 13.5512 0.900913C6.45001 2.08727 0.569067 8.54444 0.162316 15.5609C-0.0241118 18.7641 -0.00716284 22.052 0.00978511 25.2212C0.00978511 26.3228 0.0267341 27.4584 0.0267341 28.5939C0.0267341 31.6445 2.09438 33.7122 5.17891 33.7291C6.55169 33.7291 7.94143 33.7291 9.28032 33.7291C9.89044 33.7291 10.5006 33.7291 11.1107 33.7291H11.2802V33.8647C12.1106 33.8308 12.958 33.7969 13.7885 33.7799C15.7036 33.7291 17.6865 33.6783 19.6016 33.3901C23.6352 32.7631 27.4146 30.4073 29.9568 26.8991C32.5499 23.3061 33.6345 18.8827 32.9566 14.7474ZM27.1265 25.6449C24.5674 28.8311 20.7202 30.6615 16.5849 30.6954C15.0765 30.7124 13.5512 30.7124 12.0428 30.7124C10.687 30.7124 9.3481 30.7124 8.02616 30.7124C7.09403 30.7124 6.16189 30.7124 5.22975 30.7124C3.68749 30.7124 3.00957 30.0175 2.99263 28.4583C2.99263 27.0686 2.99263 25.6958 2.99263 24.306V22.3401H3.12821C3.12821 21.6622 3.11126 20.9673 3.09431 20.2894C3.04347 18.6793 3.00957 17.0184 3.17905 15.3914C3.85697 8.95119 9.33116 3.88375 15.907 3.57869C19.1101 3.44311 22.2794 4.42609 24.8385 6.39205C27.3977 8.35801 29.1603 11.1375 29.8212 14.239C30.6686 18.3065 29.7026 22.4587 27.1265 25.6449Z"></path>
<path fill="#8F31D0" d="M18.0594 23.7797C18.0594 24.6949 17.4493 25.322 16.568 25.322H16.551C15.6697 25.322 15.0765 24.678 15.0765 23.7458C15.0596 22.2036 15.0596 20.6613 15.0765 19.1699C15.0765 18.5598 15.0765 17.9496 15.0765 17.3565V17.2548L14.9918 17.2039C14.8393 17.1022 14.6698 17.0175 14.5173 16.9328C14.2292 16.7802 13.941 16.6277 13.8394 16.4413C13.6021 16.0006 13.4326 15.3396 13.5851 14.9837C13.7716 14.5431 14.3647 14.1533 14.8223 14.0177C15.0596 13.933 15.3308 13.916 15.6019 13.916C15.8731 13.916 16.1782 13.9499 16.4493 13.9669L16.6697 13.9838C17.5171 14.0516 18.0594 14.6448 18.0763 15.4922C18.0933 18.17 18.0933 20.9664 18.0594 23.7797Z"></path>
<path fill="#8F31D0" d="M18.0763 10.4748C18.0593 11.2883 17.3984 11.9323 16.5679 11.9323H16.551C16.1442 11.9323 15.7714 11.7629 15.4833 11.4747C15.2121 11.1866 15.0596 10.8307 15.0765 10.4409C15.0935 9.62742 15.7375 8.9834 16.5679 8.9834H16.5849C16.9916 8.9834 17.3645 9.15288 17.6526 9.44099C17.9238 9.71216 18.0763 10.085 18.0763 10.4748Z"></path>
</svg>
